<?xml version="1.0" encoding="utf-8"?>
<!-- Generator: Adobe Illustrator 24.2.1, SVG Export Plug-In . SVG Version: 6.00 Build 0)  -->
<!DOCTYPE svg PUBLIC "-//W3C//DTD SVG 1.1//EN" "http://www.w3.org/Graphics/SVG/1.1/DTD/svg11.dtd" [
	<!ENTITY ns_extend "http://ns.adobe.com/Extensibility/1.0/">
	<!ENTITY ns_ai "http://ns.adobe.com/AdobeIllustrator/10.0/">
	<!ENTITY ns_graphs "http://ns.adobe.com/Graphs/1.0/">
	<!ENTITY ns_vars "http://ns.adobe.com/Variables/1.0/">
	<!ENTITY ns_imrep "http://ns.adobe.com/ImageReplacement/1.0/">
	<!ENTITY ns_sfw "http://ns.adobe.com/SaveForWeb/1.0/">
	<!ENTITY ns_custom "http://ns.adobe.com/GenericCustomNamespace/1.0/">
	<!ENTITY ns_adobe_xpath "http://ns.adobe.com/XPath/1.0/">
]>
<svg version="1.1" id="Layer_1" xmlns:x="&ns_extend;" xmlns:i="&ns_ai;" xmlns:graph="&ns_graphs;"
	 xmlns="http://www.w3.org/2000/svg" xmlns:xlink="http://www.w3.org/1999/xlink" x="0px" y="0px"
	 viewBox="0 0 833.23132 833.23132" style="enable-background:new 0 0 833.23132 833.23132;" xml:space="preserve">
<style type="text/css">
	.st0{fill:#0069ED;}
	.st1{fill:#88BDFF;}
	.st2{fill:#161616;}
	.st3{fill:#FFFFFF;}
	.st4{fill:#6BACFF;}
	.st5{fill:#3E3E3E;}
</style>
<metadata>
	<sfw  xmlns="&ns_sfw;">
		<slices></slices>
		<sliceSourceBounds  bottomLeftOrigin="true" height="783.27502" width="678.11017" x="163.83855" y="102.3053">
			</sliceSourceBounds>
	</sfw>
</metadata>
<path class="st0" d="M495.56445,624.23163l168.42596,174.2337c12.25446,12.67706,30.12555,18.23309,47.40759,14.73889h0.00006
	c28.74121-5.81116,46.89789-34.34088,39.99127-62.83875l-98.70782-407.28497c-6.38794-26.35782-29.98553-44.91949-57.10638-44.91949
	c0,0-178.95947,0-178.95947,0h-178.9595c-27.12085,0-50.71843,18.56168-57.10638,44.91949L81.84195,750.36548
	c-6.90661,28.49786,11.25005,57.02759,39.99128,62.83875h0.00008c17.28203,3.4942,35.15312-2.06183,47.40758-14.73889
	l168.42595-174.2337H495.56445z"/>
<circle class="st1" cx="416.61566" cy="363.02133" r="31.31377"/>
<path class="st2" d="M520.91895,311.13306h65.94104c18.65686,0,35.7229,10.50873,44.12122,27.16846l27.32373,54.20181h16.50989
	v-30.95609c0-43.14847-34.9787-78.12723-78.1272-78.12723h-68.69299L520.91895,311.13306z"/>
<path class="st2" d="M312.31235,311.13306h-65.94102c-18.65686,0-35.7229,10.50873-44.12125,27.16846l-27.32372,54.20181h-16.5099
	v-30.95609c0-43.14847,34.97874-78.12723,78.12723-78.12723h68.69298L312.31235,311.13306z"/>
<circle class="st3" cx="416.61566" cy="363.02133" r="20.63738"/>
<g>
	<path class="st4" d="M262.19299,451.76553c-19.38017,0-35.14478-15.76901-35.14478-35.1492
		c0-19.38016,15.7646-35.14917,35.14478-35.14917s35.14478,15.76901,35.14478,35.14917
		C297.33777,435.99652,281.57318,451.76553,262.19299,451.76553z M262.19299,395.02887
		c-11.90181,0-21.58307,9.68567-21.58307,21.58746c0,11.90182,9.68126,21.58749,21.58307,21.58749
		c11.90182,0,21.58307-9.68567,21.58307-21.58749C283.77606,404.71454,274.09482,395.02887,262.19299,395.02887z"/>
</g>
<g>
	<path class="st4" d="M495.09943,569.09723c-18.36481,0-33.31271-14.94788-33.31271-33.31268s14.94791-33.31271,33.31271-33.31271
		s33.31268,14.94791,33.31268,33.31271S513.46423,569.09723,495.09943,569.09723z M495.09943,516.03357
		c-10.88644,0-19.75101,8.8645-19.75101,19.75098c0,10.88641,8.86456,19.75098,19.75101,19.75098
		s19.75098-8.86456,19.75098-19.75098C514.8504,524.89807,505.98587,516.03357,495.09943,516.03357z"/>
</g>
<circle class="st5" cx="338.99353" cy="533.57452" r="36.26283"/>
<rect x="325.28442" y="492.4472" class="st2" width="27.41823" height="27.41823"/>
<rect x="297.86618" y="519.86542" transform="matrix(4.498008e-11 -1 1 4.498008e-11 -221.99924 845.14984)" class="st2" width="27.41823" height="27.41823"/>
<rect x="325.28442" y="547.28369" transform="matrix(-1 -8.996016e-11 8.996016e-11 -1 677.98706 1121.9856)" class="st2" width="27.41823" height="27.41823"/>
<rect x="352.70264" y="519.86542" transform="matrix(-1.349731e-10 1 -1 -1.349731e-10 899.98633 167.16278)" class="st2" width="27.41823" height="27.41823"/>
<circle class="st5" cx="573.17865" cy="376.4985" r="15.72689"/>
<rect x="567.23315" y="358.66193" class="st2" width="11.89106" height="11.89106"/>
<rect x="555.34204" y="370.55298" transform="matrix(4.420826e-11 -1 1 4.420826e-11 184.78908 937.78613)" class="st2" width="11.89106" height="11.89106"/>
<rect x="567.23315" y="382.44406" transform="matrix(-1 -8.994729e-11 8.994729e-11 -1 1146.3573 776.77917)" class="st2" width="11.89106" height="11.89106"/>
<rect x="579.12421" y="370.55298" transform="matrix(-1.355327e-10 1 -1 -1.355327e-10 961.56824 -208.57121)" class="st2" width="11.89106" height="11.89106"/>
<circle class="st5" cx="573.17865" cy="453.8887" r="15.72689"/>
<rect x="567.23315" y="436.05209" class="st2" width="11.89106" height="11.89106"/>
<rect x="555.34204" y="447.94315" transform="matrix(4.420826e-11 -1 1 4.420826e-11 107.39891 1015.17627)" class="st2" width="11.89106" height="11.89106"/>
<rect x="567.23315" y="459.83423" transform="matrix(-1 -8.979407e-11 8.979407e-11 -1 1146.3573 931.55951)" class="st2" width="11.89106" height="11.89106"/>
<rect x="579.12421" y="447.94315" transform="matrix(-1.355327e-10 1 -1 -1.355327e-10 1038.95837 -131.18103)" class="st2" width="11.89106" height="11.89106"/>
<circle class="st5" cx="611.87372" cy="415.1936" r="15.72689"/>
<rect x="617.81927" y="409.24808" transform="matrix(-1.836970e-16 1 -1 -1.836970e-16 1038.95837 -208.57121)" class="st2" width="11.89106" height="11.89106"/>
<rect x="605.92822" y="397.35703" class="st2" width="11.89106" height="11.89106"/>
<rect x="594.03717" y="409.24808" transform="matrix(8.994767e-11 -1 1 8.994767e-11 184.78908 1015.17627)" class="st2" width="11.89106" height="11.89106"/>
<rect x="605.92822" y="421.13913" transform="matrix(-1 -1.356854e-10 1.356854e-10 -1 1223.74744 854.16931)" class="st2" width="11.89106" height="11.89106"/>
<circle class="st5" cx="534.48358" cy="415.1936" r="15.72689"/>
<rect x="540.42908" y="409.24808" transform="matrix(-1.836970e-16 1 -1 -1.836970e-16 961.56824 -131.18103)" class="st2" width="11.89106" height="11.89106"/>
<rect x="528.53802" y="397.35703" class="st2" width="11.89106" height="11.89106"/>
<rect x="516.64697" y="409.24808" transform="matrix(8.994767e-11 -1 1 8.994767e-11 107.39891 937.78613)" class="st2" width="11.89106" height="11.89106"/>
<rect x="528.53802" y="421.13913" transform="matrix(-1 -1.356854e-10 1.356854e-10 -1 1068.96716 854.16931)" class="st2" width="11.89106" height="11.89106"/>
<g>
	<path class="st0" d="M107.76083,250.67526V36.47799h102.51626c32.08545,0,54.98848,4.79869,68.70912,14.39607
		c13.71622,9.59738,20.57211,25.35315,20.57211,47.26291c0,13.08492-2.8121,23.94489-8.43192,32.57104
		c-5.62421,8.63058-14.29895,15.46442-26.02859,20.50591c11.92389,2.52075,20.5986,7.4872,26.02859,14.90375
		c5.42999,7.41656,8.33481,18.2986,8.7233,32.6461l1.16544,29.80751c0,0.19423,0.04858,0.43704,0.14569,0.72841
		c0.29138,8.53345,2.32651,12.99222,6.10541,13.3763v7.99928h-69.36247c-1.25816-5.13861-2.20731-9.61946-2.83418-13.45134
		c-0.63129-3.82748-0.94472-6.80734-0.94472-8.94402v-21.37558c0-11.04979-2.18083-18.82835-6.54247-23.33568
		c-4.36606-4.51173-11.92389-6.7632-22.68672-6.7632h-29.22919v73.86981H107.76083z M175.66649,128.52719h31.26433
		c10.95267,0,18.51491-1.4789,22.68672-4.43669c4.16739-2.95338,6.2511-8.11848,6.2511-15.48648
		c0-7.56224-2.08371-12.81564-6.2511-15.77785c-4.17181-2.95338-12.31238-4.43227-24.4305-4.43227h-29.52055V128.52719z"/>
	<path class="st0" d="M335.04303,250.67526V36.47799h88.1246c19.47729,0,34.9108,1.14339,46.30051,3.42133
		c11.40738,2.27794,20.92529,5.93766,28.58908,10.97474c9.88873,6.69256,17.25235,14.9788,22.09073,24.86754
		c4.85608,9.88875,7.27533,21.61839,7.27533,35.18893c0,23.9493-7.08105,42.29645-21.22549,55.04146
		c-14.16211,12.74942-34.55765,19.11971-61.22192,19.11971h-41.15308v65.58357H335.04303z M403.82278,132.74315h22.09958
		c14.35632,0,23.94489-1.59808,28.80096-4.79868c4.83841-3.19619,7.25763-8.86897,7.25763-17.01394
		c0-8.23768-2.31326-13.95902-6.9751-17.15521c-4.64417-3.20059-14.33868-4.79868-29.0835-4.79868h-22.09958V132.74315z"/>
	<path class="st0" d="M714.13513,250.67526l-3.34631-18.46635c-7.75208,8.23769-17.11102,14.37401-28.05933,18.39572
		c-10.95703,4.02171-23.70648,6.03477-38.24823,6.03477c-30.63745,0-54.77655-10.05649-72.41742-30.1739
		c-17.64081-20.11742-26.46118-47.67346-26.46118-82.66815c0-35.77164,9.83575-63.52193,29.51611-83.25086
		s47.26294-29.59118,82.73877-29.59118c27.91809,0,50.43262,6.93095,67.5437,20.79285
		c17.11102,13.86632,27.26465,33.39658,30.46967,58.60406h-65.29218c-2.62231-8.53346-6.86035-15.02736-12.72296-19.48613
		c-5.87146-4.45876-13.11139-6.68814-21.73755-6.68814c-13.77362,0-24.06854,5.28429-30.90234,15.84848
		c-6.83386,10.5686-10.25073,26.31995-10.25073,47.25848c0,19.38901,3.43457,33.8822,10.32135,43.47958
		c6.88684,9.59738,17.34949,14.39607,31.40558,14.39607c10.08301,0,18.63855-2.34859,25.66663-7.05457
		c7.02808-4.69716,11.37207-11.0233,13.01428-18.97403h-30.97296v-45.80608h94.08435v117.34938H714.13513z"/>
</g>
</svg>
