<?xml version="1.0" encoding="UTF-8" standalone="no"?>
<!-- Created with Inkscape (http://www.inkscape.org/) -->

<svg
   version="1.1"
   id="svg9"
   xml:space="preserve"
   width="1110.9747"
   height="1110.9747"
   viewBox="0 0 1110.9747 1110.9747"
   sodipodi:docname="controller drawing.svg"
   inkscape:version="1.1.1 (3bf5ae0d25, 2021-09-20)"
   xmlns:inkscape="http://www.inkscape.org/namespaces/inkscape"
   xmlns:sodipodi="http://sodipodi.sourceforge.net/DTD/sodipodi-0.dtd"
   xmlns="http://www.w3.org/2000/svg"
   xmlns:svg="http://www.w3.org/2000/svg"><defs
     id="defs13"><clipPath
       clipPathUnits="userSpaceOnUse"
       id="clipPath23"><path
         d="M 0,833.231 H 833.231 V 0 H 0 Z"
         id="path21" /></clipPath></defs><sodipodi:namedview
     id="namedview11"
     pagecolor="#505050"
     bordercolor="#eeeeee"
     borderopacity="1"
     inkscape:pageshadow="0"
     inkscape:pageopacity="0"
     inkscape:pagecheckerboard="0"
     showgrid="false"
     inkscape:zoom="1.6760057"
     inkscape:cx="555.18904"
     inkscape:cy="658.70897"
     inkscape:window-width="3840"
     inkscape:window-height="2120"
     inkscape:window-x="3348"
     inkscape:window-y="-12"
     inkscape:window-maximized="1"
     inkscape:current-layer="g15" /><g
     id="g15"
     inkscape:groupmode="layer"
     inkscape:label="controller drawing"
     transform="matrix(1.3333333,0,0,-1.3333333,0,1110.9747)"><g
       id="g19"
       clip-path="url(#clipPath23)"
       transform="translate(0,129.77283)"><g
         id="g25"
         transform="translate(495.564,208.9994)"><path
           d="m 0,0 168.427,-174.233 c 12.254,-12.677 30.125,-18.234 47.407,-14.74 28.741,5.812 46.898,34.341 39.991,62.839 l -98.708,407.285 c -6.388,26.358 -29.985,44.92 -57.106,44.92 h -178.959 -178.96 c -27.121,0 -50.718,-18.562 -57.106,-44.92 l -98.708,-407.285 c -6.906,-28.498 11.25,-57.027 39.991,-62.839 h 10e-4 c 17.281,-3.494 35.152,2.063 47.407,14.74 L -157.897,0 Z"
           style="fill:#0069ed;fill-opacity:1;fill-rule:nonzero;stroke:none"
           id="path27" /></g><g
         id="g29"
         transform="translate(447.9292,470.2098)"><path
           d="m 0,0 c 0,-17.294 -14.02,-31.313 -31.313,-31.313 -17.295,0 -31.314,14.019 -31.314,31.313 0,17.294 14.019,31.314 31.314,31.314 C -14.02,31.314 0,17.294 0,0"
           style="fill:#88bdff;fill-opacity:1;fill-rule:nonzero;stroke:none"
           id="path31" /></g><g
         id="g33"
         transform="translate(520.9194,522.098)"><path
           d="m 0,0 h 65.94 c 18.658,0 35.723,-10.508 44.122,-27.168 l 27.324,-54.202 h 16.51 v 30.956 c 0,43.148 -34.979,78.127 -78.127,78.127 H 7.075 Z"
           style="fill:#161616;fill-opacity:1;fill-rule:nonzero;stroke:none"
           id="path35" /></g><g
         id="g37"
         transform="translate(312.3125,522.098)"><path
           d="m 0,0 h -65.941 c -18.657,0 -35.723,-10.508 -44.122,-27.168 l -27.323,-54.202 h -16.51 v 30.956 c 0,43.148 34.979,78.127 78.127,78.127 h 68.693 z"
           style="fill:#161616;fill-opacity:1;fill-rule:nonzero;stroke:none"
           id="path39" /></g><g
         id="g41"
         transform="translate(437.2534,470.2098)"><path
           d="m 0,0 c 0,-11.397 -9.24,-20.637 -20.638,-20.637 -11.398,0 -20.637,9.24 -20.637,20.637 0,11.398 9.239,20.638 20.637,20.638 C -9.24,20.638 0,11.398 0,0"
           style="fill:#ffffff;fill-opacity:1;fill-rule:nonzero;stroke:none"
           id="path43" /></g><g
         id="g45"
         transform="translate(262.1929,438.2025)"><path
           d="m 0,0 c -11.902,0 -21.583,-9.686 -21.583,-21.588 0,-11.901 9.681,-21.587 21.583,-21.587 11.902,0 21.583,9.686 21.583,21.587 C 21.583,-9.686 11.902,0 0,0 m 0,-56.736 c -19.38,0 -35.145,15.768 -35.145,35.148 0,19.38 15.765,35.15 35.145,35.15 19.38,0 35.145,-15.77 35.145,-35.15 0,-19.38 -15.765,-35.148 -35.145,-35.148"
           style="fill:#6bacff;fill-opacity:1;fill-rule:nonzero;stroke:none"
           id="path47" /></g><g
         id="g49"
         transform="translate(495.0991,317.1976)"><path
           d="m 0,0 c -10.886,0 -19.751,-8.864 -19.751,-19.751 0,-10.887 8.865,-19.751 19.751,-19.751 10.887,0 19.751,8.864 19.751,19.751 C 19.751,-8.864 10.887,0 0,0 m 0,-53.063 c -18.364,0 -33.313,14.948 -33.313,33.312 0,18.365 14.949,33.313 33.313,33.313 18.365,0 33.313,-14.948 33.313,-33.313 0,-18.364 -14.948,-33.312 -33.313,-33.312"
           style="fill:#6bacff;fill-opacity:1;fill-rule:nonzero;stroke:none"
           id="path51" /></g><g
         id="g53"
         transform="translate(375.2563,299.6566)"><path
           d="m 0,0 c 0,-20.027 -16.235,-36.263 -36.263,-36.263 -20.027,0 -36.263,16.236 -36.263,36.263 0,20.027 16.236,36.263 36.263,36.263 C -16.235,36.263 0,20.027 0,0"
           style="fill:#3e3e3e;fill-opacity:1;fill-rule:nonzero;stroke:none"
           id="path55" /></g><path
         d="m 352.703,313.366 h -27.418 v 27.419 h 27.418 z"
         style="fill:#161616;fill-opacity:1;fill-rule:nonzero;stroke:none"
         id="path57" /><path
         d="m 325.284,285.948 h -27.418 v 27.418 h 27.418 z"
         style="fill:#161616;fill-opacity:1;fill-rule:nonzero;stroke:none"
         id="path59" /><path
         d="m 325.284,285.948 h 27.418 V 258.53 h -27.418 z"
         style="fill:#161616;fill-opacity:1;fill-rule:nonzero;stroke:none"
         id="path61" /><path
         d="m 352.703,313.366 h 27.418 v -27.418 h -27.418 z"
         style="fill:#161616;fill-opacity:1;fill-rule:nonzero;stroke:none"
         id="path63" /><g
         id="g65"
         transform="translate(588.9058,456.7328)"><path
           d="m 0,0 c 0,-8.686 -7.041,-15.727 -15.728,-15.727 -8.685,0 -15.726,7.041 -15.726,15.727 0,8.686 7.041,15.727 15.726,15.727 C -7.041,15.727 0,8.686 0,0"
           style="fill:#3e3e3e;fill-opacity:1;fill-rule:nonzero;stroke:none"
           id="path67" /></g><path
         d="m 579.125,462.678 h -11.892 v 11.891 h 11.892 z"
         style="fill:#161616;fill-opacity:1;fill-rule:nonzero;stroke:none"
         id="path69" /><path
         d="m 567.233,450.787 h -11.891 v 11.891 h 11.891 z"
         style="fill:#161616;fill-opacity:1;fill-rule:nonzero;stroke:none"
         id="path71" /><path
         d="m 567.233,450.787 h 11.892 v -11.891 h -11.892 z"
         style="fill:#161616;fill-opacity:1;fill-rule:nonzero;stroke:none"
         id="path73" /><path
         d="m 579.125,462.678 h 11.891 v -11.891 h -11.891 z"
         style="fill:#161616;fill-opacity:1;fill-rule:nonzero;stroke:none"
         id="path75" /><g
         id="g77"
         transform="translate(588.9058,379.3421)"><path
           d="m 0,0 c 0,-8.686 -7.041,-15.727 -15.728,-15.727 -8.685,0 -15.726,7.041 -15.726,15.727 0,8.687 7.041,15.728 15.726,15.728 C -7.041,15.728 0,8.687 0,0"
           style="fill:#3e3e3e;fill-opacity:1;fill-rule:nonzero;stroke:none"
           id="path79" /></g><path
         d="m 579.125,385.288 h -11.892 v 11.891 h 11.892 z"
         style="fill:#161616;fill-opacity:1;fill-rule:nonzero;stroke:none"
         id="path81" /><path
         d="m 567.233,373.397 h -11.891 v 11.892 h 11.891 z"
         style="fill:#161616;fill-opacity:1;fill-rule:nonzero;stroke:none"
         id="path83" /><path
         d="m 567.233,373.397 h 11.892 v -11.891 h -11.892 z"
         style="fill:#161616;fill-opacity:1;fill-rule:nonzero;stroke:none"
         id="path85" /><path
         d="m 579.125,385.288 h 11.891 v -11.892 h -11.891 z"
         style="fill:#161616;fill-opacity:1;fill-rule:nonzero;stroke:none"
         id="path87" /><g
         id="g89"
         transform="translate(611.8735,402.3109)"><path
           d="m 0,0 c -8.686,0 -15.727,7.041 -15.727,15.727 0,8.686 7.041,15.727 15.727,15.727 8.686,0 15.728,-7.041 15.728,-15.727 C 15.728,7.041 8.686,0 0,0"
           style="fill:#3e3e3e;fill-opacity:1;fill-rule:nonzero;stroke:none"
           id="path91" /></g><path
         d="m 617.819,423.983 h 11.892 v -11.891 h -11.892 z"
         style="fill:#161616;fill-opacity:1;fill-rule:nonzero;stroke:none"
         id="path93" /><path
         d="m 617.819,423.983 h -11.891 v 11.891 h 11.891 z"
         style="fill:#161616;fill-opacity:1;fill-rule:nonzero;stroke:none"
         id="path95" /><path
         d="m 605.928,412.092 h -11.891 v 11.891 h 11.891 z"
         style="fill:#161616;fill-opacity:1;fill-rule:nonzero;stroke:none"
         id="path97" /><path
         d="m 605.928,412.092 h 11.891 v -11.891 h -11.891 z"
         style="fill:#161616;fill-opacity:1;fill-rule:nonzero;stroke:none"
         id="path99" /><g
         id="g101"
         transform="translate(534.4839,402.3109)"><path
           d="m 0,0 c -8.687,0 -15.728,7.041 -15.728,15.727 0,8.686 7.041,15.727 15.728,15.727 8.686,0 15.727,-7.041 15.727,-15.727 C 15.727,7.041 8.686,0 0,0"
           style="fill:#3e3e3e;fill-opacity:1;fill-rule:nonzero;stroke:none"
           id="path103" /></g><path
         d="M 540.429,423.983 H 552.32 V 412.092 H 540.429 Z"
         style="fill:#161616;fill-opacity:1;fill-rule:nonzero;stroke:none"
         id="path105" /><path
         d="m 540.429,423.983 h -11.892 v 11.891 h 11.892 z"
         style="fill:#161616;fill-opacity:1;fill-rule:nonzero;stroke:none"
         id="path107" /><path
         d="m 528.538,412.092 h -11.891 v 11.891 h 11.891 z"
         style="fill:#161616;fill-opacity:1;fill-rule:nonzero;stroke:none"
         id="path109" /><path
         d="M 528.538,412.092 H 540.43 V 400.201 H 528.538 Z"
         style="fill:#161616;fill-opacity:1;fill-rule:nonzero;stroke:none"
         id="path111" /><g
         id="g113"
         transform="translate(175.6665,704.704)" /><g
         id="g117"
         transform="translate(403.8228,700.4882)" /><g
         id="g121"
         transform="translate(714.1353,582.556)" /></g></g></svg>
